G04 #@! TF.GenerationSoftware,KiCad,Pcbnew,6.0.5-a6ca702e91~116~ubuntu20.04.1*
G04 #@! TF.CreationDate,2022-06-01T09:33:51+02:00*
G04 #@! TF.ProjectId,3liza,336c697a-612e-46b6-9963-61645f706362,rev?*
G04 #@! TF.SameCoordinates,Original*
G04 #@! TF.FileFunction,Legend,Top*
G04 #@! TF.FilePolarity,Positive*
%FSLAX46Y46*%
G04 Gerber Fmt 4.6, Leading zero omitted, Abs format (unit mm)*
G04 Created by KiCad (PCBNEW 6.0.5-a6ca702e91~116~ubuntu20.04.1) date 2022-06-01 09:33:51*
%MOMM*%
%LPD*%
G01*
G04 APERTURE LIST*
G04 #@! TA.AperFunction,Profile*
%ADD10C,0.200000*%
G04 #@! TD*
G04 APERTURE END LIST*
D10*
X161176369Y-72788356D02*
X171570538Y-72788357D01*
X20472284Y-135409792D02*
X20472281Y-64209790D01*
X149176370Y-66988370D02*
G75*
G03*
X147176370Y-68988357I30J-2000030D01*
G01*
X235938988Y-62209792D02*
X277502783Y-62209794D01*
X130267347Y-72393357D02*
G75*
G03*
X134782198Y-72788356I4514853J25604957D01*
G01*
X235938988Y-62209789D02*
G75*
G03*
X231771433Y-62574406I12J-23999911D01*
G01*
X22472283Y-62209795D02*
X70413751Y-62209792D01*
X149176370Y-66988357D02*
X157176369Y-66988356D01*
X279502806Y-64209792D02*
G75*
G03*
X277502783Y-62209794I-2000006J-8D01*
G01*
X159176444Y-70788357D02*
G75*
G03*
X161176369Y-72788356I1999956J-43D01*
G01*
X22472283Y-62209781D02*
G75*
G03*
X20472281Y-64209790I17J-2000019D01*
G01*
X74581306Y-62574403D02*
X130267347Y-72393357D01*
X137930137Y-150104594D02*
X68174476Y-137804790D01*
X164255046Y-150469218D02*
G75*
G03*
X168422602Y-150104596I-46J24000018D01*
G01*
X74581305Y-62574410D02*
G75*
G03*
X70413751Y-62209792I-4167605J-23635690D01*
G01*
X279502781Y-64209792D02*
X279502782Y-135409792D01*
X242693115Y-137409791D02*
G75*
G03*
X238178261Y-137804790I-15J-25999809D01*
G01*
X20472308Y-135409792D02*
G75*
G03*
X22472282Y-137409792I1999992J-8D01*
G01*
X277502783Y-137409782D02*
G75*
G03*
X279502782Y-135409792I17J1999982D01*
G01*
X68174476Y-137804790D02*
G75*
G03*
X63659623Y-137409795I-4514876J-25605510D01*
G01*
X176085394Y-72393358D02*
X231771433Y-62574406D01*
X145176368Y-72788370D02*
G75*
G03*
X147176370Y-70788358I32J1999970D01*
G01*
X277502783Y-137409795D02*
X242693115Y-137409794D01*
X238178261Y-137804790D02*
X168422602Y-150104596D01*
X147176370Y-70788358D02*
X147176370Y-68988357D01*
X164255046Y-150469211D02*
X142097693Y-150469210D01*
X171570538Y-72788364D02*
G75*
G03*
X176085394Y-72393358I-38J25999964D01*
G01*
X159176344Y-68988358D02*
G75*
G03*
X157176369Y-66988356I-1999944J58D01*
G01*
X159176365Y-68988358D02*
X159176369Y-70788357D01*
X63659623Y-137409795D02*
X22472282Y-137409792D01*
X134782198Y-72788356D02*
X145176368Y-72788354D01*
X137930138Y-150104589D02*
G75*
G03*
X142097693Y-150469210I4167562J23634989D01*
G01*
M02*
