G04 #@! TF.GenerationSoftware,KiCad,Pcbnew,6.0.5-a6ca702e91~116~ubuntu20.04.1*
G04 #@! TF.CreationDate,2022-06-01T09:33:51+02:00*
G04 #@! TF.ProjectId,3liza,336c697a-612e-46b6-9963-61645f706362,rev?*
G04 #@! TF.SameCoordinates,Original*
G04 #@! TF.FileFunction,Paste,Bot*
G04 #@! TF.FilePolarity,Positive*
%FSLAX46Y46*%
G04 Gerber Fmt 4.6, Leading zero omitted, Abs format (unit mm)*
G04 Created by KiCad (PCBNEW 6.0.5-a6ca702e91~116~ubuntu20.04.1) date 2022-06-01 09:33:51*
%MOMM*%
%LPD*%
G01*
G04 APERTURE LIST*
G04 Aperture macros list*
%AMRoundRect*
0 Rectangle with rounded corners*
0 $1 Rounding radius*
0 $2 $3 $4 $5 $6 $7 $8 $9 X,Y pos of 4 corners*
0 Add a 4 corners polygon primitive as box body*
4,1,4,$2,$3,$4,$5,$6,$7,$8,$9,$2,$3,0*
0 Add four circle primitives for the rounded corners*
1,1,$1+$1,$2,$3*
1,1,$1+$1,$4,$5*
1,1,$1+$1,$6,$7*
1,1,$1+$1,$8,$9*
0 Add four rect primitives between the rounded corners*
20,1,$1+$1,$2,$3,$4,$5,0*
20,1,$1+$1,$4,$5,$6,$7,0*
20,1,$1+$1,$6,$7,$8,$9,0*
20,1,$1+$1,$8,$9,$2,$3,0*%
%AMRotRect*
0 Rectangle, with rotation*
0 The origin of the aperture is its center*
0 $1 length*
0 $2 width*
0 $3 Rotation angle, in degrees counterclockwise*
0 Add horizontal line*
21,1,$1,$2,0,0,$3*%
G04 Aperture macros list end*
G04 #@! TA.AperFunction,Profile*
%ADD10C,0.200000*%
G04 #@! TD*
%ADD11RotRect,0.900000X0.800000X260.000000*%
%ADD12RoundRect,0.250000X0.159099X-0.512652X0.512652X-0.159099X-0.159099X0.512652X-0.512652X0.159099X0*%
%ADD13R,0.800000X0.900000*%
%ADD14RoundRect,0.250000X-0.450000X0.262500X-0.450000X-0.262500X0.450000X-0.262500X0.450000X0.262500X0*%
%ADD15RoundRect,0.250000X0.503814X0.132583X0.132583X0.503814X-0.503814X-0.132583X-0.132583X-0.503814X0*%
%ADD16RoundRect,0.250000X-0.250000X-0.475000X0.250000X-0.475000X0.250000X0.475000X-0.250000X0.475000X0*%
%ADD17RotRect,0.900000X0.800000X280.000000*%
%ADD18RotRect,1.600000X0.550000X225.000000*%
%ADD19RotRect,1.600000X0.550000X135.000000*%
%ADD20R,0.600000X1.450000*%
%ADD21R,0.300000X1.450000*%
%ADD22RoundRect,0.250000X0.262500X0.450000X-0.262500X0.450000X-0.262500X-0.450000X0.262500X-0.450000X0*%
%ADD23RoundRect,0.250000X0.625000X-0.375000X0.625000X0.375000X-0.625000X0.375000X-0.625000X-0.375000X0*%
%ADD24RoundRect,0.250000X0.512652X0.159099X0.159099X0.512652X-0.512652X-0.159099X-0.159099X-0.512652X0*%
%ADD25RotRect,1.400000X1.200000X315.000000*%
%ADD26RoundRect,0.250000X-0.159099X0.512652X-0.512652X0.159099X0.159099X-0.512652X0.512652X-0.159099X0*%
%ADD27RoundRect,0.150000X-0.512500X-0.150000X0.512500X-0.150000X0.512500X0.150000X-0.512500X0.150000X0*%
%ADD28RoundRect,0.250000X-0.262500X-0.450000X0.262500X-0.450000X0.262500X0.450000X-0.262500X0.450000X0*%
G04 APERTURE END LIST*
D10*
X161176369Y-72788356D02*
X171570538Y-72788357D01*
X20472284Y-135409792D02*
X20472281Y-64209790D01*
X149176370Y-66988370D02*
G75*
G03*
X147176370Y-68988357I30J-2000030D01*
G01*
X235938988Y-62209792D02*
X277502783Y-62209794D01*
X130267347Y-72393357D02*
G75*
G03*
X134782198Y-72788356I4514853J25604957D01*
G01*
X235938988Y-62209789D02*
G75*
G03*
X231771433Y-62574406I12J-23999911D01*
G01*
X22472283Y-62209795D02*
X70413751Y-62209792D01*
X149176370Y-66988357D02*
X157176369Y-66988356D01*
X279502806Y-64209792D02*
G75*
G03*
X277502783Y-62209794I-2000006J-8D01*
G01*
X159176444Y-70788357D02*
G75*
G03*
X161176369Y-72788356I1999956J-43D01*
G01*
X22472283Y-62209781D02*
G75*
G03*
X20472281Y-64209790I17J-2000019D01*
G01*
X74581306Y-62574403D02*
X130267347Y-72393357D01*
X137930137Y-150104594D02*
X68174476Y-137804790D01*
X164255046Y-150469218D02*
G75*
G03*
X168422602Y-150104596I-46J24000018D01*
G01*
X74581305Y-62574410D02*
G75*
G03*
X70413751Y-62209792I-4167605J-23635690D01*
G01*
X279502781Y-64209792D02*
X279502782Y-135409792D01*
X242693115Y-137409791D02*
G75*
G03*
X238178261Y-137804790I-15J-25999809D01*
G01*
X20472308Y-135409792D02*
G75*
G03*
X22472282Y-137409792I1999992J-8D01*
G01*
X277502783Y-137409782D02*
G75*
G03*
X279502782Y-135409792I17J1999982D01*
G01*
X68174476Y-137804790D02*
G75*
G03*
X63659623Y-137409795I-4514876J-25605510D01*
G01*
X176085394Y-72393358D02*
X231771433Y-62574406D01*
X145176368Y-72788370D02*
G75*
G03*
X147176370Y-70788358I32J1999970D01*
G01*
X277502783Y-137409795D02*
X242693115Y-137409794D01*
X238178261Y-137804790D02*
X168422602Y-150104596D01*
X147176370Y-70788358D02*
X147176370Y-68988357D01*
X164255046Y-150469211D02*
X142097693Y-150469210D01*
X171570538Y-72788364D02*
G75*
G03*
X176085394Y-72393358I-38J25999964D01*
G01*
X159176344Y-68988358D02*
G75*
G03*
X157176369Y-66988356I-1999944J58D01*
G01*
X159176365Y-68988358D02*
X159176369Y-70788357D01*
X63659623Y-137409795D02*
X22472282Y-137409792D01*
X134782198Y-72788356D02*
X145176368Y-72788354D01*
X137930138Y-150104589D02*
G75*
G03*
X142097693Y-150469210I4167562J23634989D01*
G01*
D11*
G04 #@! TO.C,D15*
X129707920Y-124903748D03*
X129119649Y-122769166D03*
X130990784Y-123099098D03*
G04 #@! TD*
D12*
G04 #@! TO.C,C5*
X161258357Y-100614737D03*
X162601859Y-99271235D03*
G04 #@! TD*
D13*
G04 #@! TO.C,D12*
X249950005Y-94700694D03*
X249000005Y-92700694D03*
X250900005Y-92700694D03*
G04 #@! TD*
D14*
G04 #@! TO.C,R4*
X152146772Y-84676679D03*
X152146772Y-86501679D03*
G04 #@! TD*
D15*
G04 #@! TO.C,R6*
X146848407Y-107824414D03*
X145557937Y-106533944D03*
G04 #@! TD*
D11*
G04 #@! TO.C,D20*
X134066089Y-145531921D03*
X133477818Y-143397339D03*
X135348953Y-143727271D03*
G04 #@! TD*
D13*
G04 #@! TO.C,D19*
X65200774Y-133373682D03*
X64250774Y-131373682D03*
X66150774Y-131373682D03*
G04 #@! TD*
D14*
G04 #@! TO.C,R3*
X154192003Y-84667341D03*
X154192003Y-86492341D03*
G04 #@! TD*
D13*
G04 #@! TO.C,D18*
X257570004Y-113496693D03*
X256620004Y-111496693D03*
X258520004Y-111496693D03*
G04 #@! TD*
G04 #@! TO.C,D1*
X45690333Y-76070189D03*
X44740333Y-74070189D03*
X46640333Y-74070189D03*
G04 #@! TD*
G04 #@! TO.C,D6*
X254268004Y-75650693D03*
X253318004Y-73650693D03*
X255218004Y-73650693D03*
G04 #@! TD*
D16*
G04 #@! TO.C,C1*
X157026604Y-89966893D03*
X158926604Y-89966893D03*
G04 #@! TD*
D17*
G04 #@! TO.C,D16*
X180477553Y-124302514D03*
X179194689Y-122497864D03*
X181065824Y-122167932D03*
G04 #@! TD*
D11*
G04 #@! TO.C,D9*
X123510556Y-104467106D03*
X122922285Y-102332524D03*
X124793420Y-102662456D03*
G04 #@! TD*
G04 #@! TO.C,D2*
X84544699Y-78252498D03*
X83956428Y-76117916D03*
X85827563Y-76447848D03*
G04 #@! TD*
D18*
G04 #@! TO.C,U1*
X155435001Y-99291408D03*
X156000686Y-99857094D03*
X156566372Y-100422779D03*
X157132057Y-100988464D03*
X157697743Y-101554150D03*
X158263428Y-102119835D03*
X158829113Y-102685521D03*
X159394799Y-103251206D03*
D19*
X159394799Y-105301816D03*
X158829113Y-105867501D03*
X158263428Y-106433187D03*
X157697743Y-106998872D03*
X157132057Y-107564558D03*
X156566372Y-108130243D03*
X156000686Y-108695928D03*
X155435001Y-109261614D03*
D18*
X153384391Y-109261614D03*
X152818706Y-108695928D03*
X152253020Y-108130243D03*
X151687335Y-107564558D03*
X151121649Y-106998872D03*
X150555964Y-106433187D03*
X149990279Y-105867501D03*
X149424593Y-105301816D03*
D19*
X149424593Y-103251206D03*
X149990279Y-102685521D03*
X150555964Y-102119835D03*
X151121649Y-101554150D03*
X151687335Y-100988464D03*
X152253020Y-100422779D03*
X152818706Y-99857094D03*
X153384391Y-99291408D03*
G04 #@! TD*
D12*
G04 #@! TO.C,C3*
X162820924Y-102177301D03*
X164164426Y-100833799D03*
G04 #@! TD*
D13*
G04 #@! TO.C,D13*
X49525732Y-114017791D03*
X48575732Y-112017791D03*
X50475732Y-112017791D03*
G04 #@! TD*
D20*
G04 #@! TO.C,USB1*
X149933131Y-73425591D03*
X150733131Y-73425591D03*
D21*
X151933131Y-73425591D03*
X152933131Y-73425591D03*
X153433131Y-73425591D03*
X154433131Y-73425591D03*
D20*
X155633131Y-73425591D03*
X156433131Y-73425591D03*
X156433131Y-73425591D03*
X155633131Y-73425591D03*
D21*
X154933131Y-73425591D03*
X153933131Y-73425591D03*
X152433131Y-73425591D03*
X151433131Y-73425591D03*
D20*
X150733131Y-73425591D03*
X149933131Y-73425591D03*
G04 #@! TD*
D22*
G04 #@! TO.C,R2*
X162470505Y-75666695D03*
X160645505Y-75666695D03*
G04 #@! TD*
D11*
G04 #@! TO.C,D14*
X92186745Y-118287749D03*
X91598474Y-116153167D03*
X93469609Y-116483099D03*
G04 #@! TD*
D23*
G04 #@! TO.C,F1*
X156986004Y-81638694D03*
X156986004Y-78838694D03*
G04 #@! TD*
D15*
G04 #@! TO.C,R5*
X160560714Y-111456631D03*
X159270244Y-110166161D03*
G04 #@! TD*
D17*
G04 #@! TO.C,D17*
X217748589Y-117730626D03*
X216465725Y-115925976D03*
X218336860Y-115596044D03*
G04 #@! TD*
D24*
G04 #@! TO.C,C2*
X152490093Y-96250332D03*
X151146591Y-94906830D03*
G04 #@! TD*
D25*
G04 #@! TO.C,X1*
X159418466Y-96229261D03*
X160974101Y-97784896D03*
X159772020Y-98986977D03*
X158216385Y-97431342D03*
G04 #@! TD*
D26*
G04 #@! TO.C,C4*
X157932127Y-94601502D03*
X156588625Y-95945004D03*
G04 #@! TD*
D13*
G04 #@! TO.C,D7*
X45182331Y-94688390D03*
X44232331Y-92688390D03*
X46132331Y-92688390D03*
G04 #@! TD*
D17*
G04 #@! TO.C,D4*
X178364097Y-85987419D03*
X177081233Y-84182769D03*
X178952368Y-83852837D03*
G04 #@! TD*
D27*
G04 #@! TO.C,U2*
X152089303Y-81137895D03*
X152089303Y-80187895D03*
X152089303Y-79237895D03*
X154364303Y-79237895D03*
X154364303Y-80187895D03*
X154364303Y-81137895D03*
G04 #@! TD*
D13*
G04 #@! TO.C,D21*
X234964005Y-134578694D03*
X234014005Y-132578694D03*
X235914005Y-132578694D03*
G04 #@! TD*
D11*
G04 #@! TO.C,D8*
X85989381Y-97851108D03*
X85401110Y-95716526D03*
X87272245Y-96046458D03*
G04 #@! TD*
D17*
G04 #@! TO.C,D10*
X186468886Y-104160120D03*
X185186022Y-102355470D03*
X187057157Y-102025538D03*
G04 #@! TD*
D11*
G04 #@! TO.C,D3*
X122065872Y-84868492D03*
X121477601Y-82733910D03*
X123348736Y-83063842D03*
G04 #@! TD*
D24*
G04 #@! TO.C,C6*
X147676673Y-100309407D03*
X146333171Y-98965905D03*
G04 #@! TD*
D28*
G04 #@! TO.C,R1*
X143881504Y-75666695D03*
X145706504Y-75666695D03*
G04 #@! TD*
D17*
G04 #@! TO.C,D5*
X215885274Y-79371423D03*
X214602410Y-77566773D03*
X216473545Y-77236841D03*
G04 #@! TD*
G04 #@! TO.C,D11*
X223990062Y-97544126D03*
X222707198Y-95739476D03*
X224578333Y-95409544D03*
G04 #@! TD*
M02*
