M48
; DRILL file {KiCad (6.0.1)} date Wed May 18 11:51:41 2022
; FORMAT={-:-/ absolute / metric / decimal}
; #@! TF.CreationDate,2022-05-18T11:51:41+02:00
; #@! TF.GenerationSoftware,Kicad,Pcbnew,(6.0.1)
; #@! TF.FileFunction,NonPlated,1,2,NPTH
FMAT,2
METRIC
; #@! TA.AperFunction,NonPlated,NPTH,ComponentDrill
T1C0.650
; #@! TA.AperFunction,NonPlated,NPTH,ComponentDrill
T2C1.750
; #@! TA.AperFunction,NonPlated,NPTH,ComponentDrill
T3C3.048
; #@! TA.AperFunction,NonPlated,NPTH,ComponentDrill
T4C3.988
%
G90
G05
T1
X150.293Y-71.981
X156.073Y-71.981
T2
X30.6Y-90.301
X31.081Y-71.251
X31.534Y-109.351
X32.986Y-128.404
X40.76Y-90.301
X41.241Y-71.251
X41.694Y-109.351
X43.146Y-128.404
X49.65Y-90.301
X50.131Y-71.251
X57.728Y-109.351
X59.81Y-90.301
X60.291Y-71.251
X67.888Y-109.351
X71.046Y-71.111
X72.429Y-90.699
X72.848Y-129.46
X78.501Y-111.113
X81.052Y-72.875
X82.434Y-92.463
X82.853Y-131.225
X88.506Y-112.878
X89.807Y-74.419
X91.189Y-94.007
X97.261Y-114.421
X99.813Y-76.183
X101.195Y-95.771
X107.267Y-116.186
X108.568Y-77.727
X109.95Y-97.315
X110.369Y-136.076
X116.022Y-117.729
X118.573Y-79.491
X119.955Y-99.079
X120.375Y-137.841
X126.028Y-119.494
X127.328Y-81.035
X128.71Y-100.623
X134.783Y-121.037
X137.334Y-82.799
X138.716Y-102.387
X144.788Y-122.802
X163.166Y-83.844
X165.092Y-122.193
X171.164Y-101.778
X173.172Y-82.08
X175.097Y-120.428
X181.17Y-100.014
X181.927Y-80.536
X183.852Y-118.885
X184.815Y-138.059
X189.925Y-98.47
X191.932Y-78.772
X193.858Y-117.12
X194.821Y-136.294
X199.93Y-96.706
X200.687Y-77.228
X202.613Y-115.577
X208.685Y-95.162
X210.693Y-75.464
X212.619Y-113.812
X217.646Y-132.27
X218.691Y-93.398
X219.448Y-73.92
X221.374Y-112.269
X227.446Y-91.854
X227.652Y-130.505
X229.453Y-72.156
X231.379Y-110.504
X237.451Y-90.09
X239.676Y-71.235
X241.601Y-109.335
X249.836Y-71.235
X251.761Y-109.335
X254.453Y-90.285
X256.815Y-128.385
X258.726Y-71.235
X263.013Y-109.335
X264.613Y-90.285
X266.975Y-128.385
X268.886Y-71.235
X273.173Y-109.335
T3
X102.433Y-141.77
X125.884Y-145.905
X179.306Y-146.123
X202.756Y-141.988
T4
X35.68Y-90.301
X36.161Y-71.251
X36.614Y-109.351
X38.066Y-128.404
X54.73Y-90.301
X55.211Y-71.251
X62.808Y-109.351
X76.049Y-71.993
X77.431Y-91.581
X77.851Y-130.343
X83.504Y-111.996
X94.81Y-75.301
X96.192Y-94.889
X102.264Y-115.304
X105.08Y-126.762
X113.57Y-78.609
X114.953Y-98.197
X115.372Y-136.959
X121.025Y-118.612
X128.531Y-130.897
X132.331Y-81.917
X133.713Y-101.505
X139.785Y-121.92
X168.169Y-82.962
X170.095Y-121.31
X176.167Y-100.896
X176.659Y-131.114
X186.929Y-79.654
X188.855Y-118.002
X189.818Y-137.177
X194.927Y-97.588
X200.11Y-126.979
X205.69Y-76.346
X207.616Y-114.694
X213.688Y-94.28
X222.649Y-131.388
X224.451Y-73.038
X226.376Y-111.386
X232.449Y-90.972
X244.756Y-71.235
X246.681Y-109.335
X259.533Y-90.285
X261.895Y-128.385
X263.806Y-71.235
X268.093Y-109.335
T0
M30
