%TF.GenerationSoftware,KiCad,Pcbnew,(6.0.1)*%
%TF.CreationDate,2022-05-18T11:52:05+02:00*%
%TF.ProjectId,3liza,336c697a-612e-46b6-9963-61645f706362,rev?*%
%TF.SameCoordinates,Original*%
%TF.FileFunction,Soldermask,Top*%
%TF.FilePolarity,Negative*%
%FSLAX46Y46*%
G04 Gerber Fmt 4.6, Leading zero omitted, Abs format (unit mm)*
G04 Created by KiCad (PCBNEW (6.0.1)) date 2022-05-18 11:52:05*
%MOMM*%
%LPD*%
G01*
G04 APERTURE LIST*
%ADD10C,3.987800*%
%ADD11C,3.048000*%
%ADD12C,1.750000*%
%ADD13O,1.700000X1.700000*%
%ADD14R,1.700000X1.700000*%
%ADD15O,1.000000X2.100000*%
%ADD16O,1.000000X1.600000*%
%ADD17C,0.650000*%
G04 APERTURE END LIST*
D10*
%TO.C,MX39*%
X200110008Y-126979462D03*
X176659273Y-131114460D03*
D11*
X202756406Y-141987933D03*
X179305671Y-146122930D03*
D12*
X194820929Y-136294416D03*
X184815283Y-138058682D03*
D10*
X189818106Y-137176549D03*
%TD*%
%TO.C,MX38*%
X128530601Y-130896519D03*
X105079866Y-126761521D03*
D11*
X125884203Y-145904989D03*
X102433468Y-141769992D03*
D12*
X120374591Y-137840741D03*
X110368945Y-136076475D03*
D10*
X115371768Y-136958608D03*
%TD*%
D12*
%TO.C,MX22*%
X237451476Y-90089747D03*
X227445830Y-91854013D03*
D10*
X232448653Y-90971880D03*
%TD*%
D12*
%TO.C,MX30*%
X175097415Y-120428327D03*
D10*
X170094592Y-121310460D03*
D12*
X165091769Y-122192593D03*
%TD*%
%TO.C,MX27*%
X97261427Y-114421390D03*
X107267073Y-116185656D03*
D10*
X102264250Y-115303523D03*
%TD*%
D12*
%TO.C,MX13*%
X40760431Y-90301443D03*
D10*
X35680431Y-90301443D03*
D12*
X30600431Y-90301443D03*
%TD*%
%TO.C,MX40*%
X227651959Y-130505421D03*
X217646313Y-132269687D03*
D10*
X222649136Y-131387554D03*
%TD*%
D12*
%TO.C,MX11*%
X249836485Y-71234792D03*
X239676485Y-71234792D03*
D10*
X244756485Y-71234792D03*
%TD*%
D12*
%TO.C,MX36*%
X32985733Y-128403843D03*
D10*
X38065733Y-128403843D03*
D12*
X43145733Y-128403843D03*
%TD*%
D10*
%TO.C,MX26*%
X83503662Y-111995525D03*
D12*
X88506485Y-112877658D03*
X78500839Y-111113392D03*
%TD*%
D10*
%TO.C,MX14*%
X54730434Y-90301442D03*
D12*
X49650434Y-90301442D03*
X59810434Y-90301442D03*
%TD*%
%TO.C,MX31*%
X183852360Y-118884594D03*
X193858006Y-117120328D03*
D10*
X188855183Y-118002461D03*
%TD*%
D12*
%TO.C,MX15*%
X82434189Y-92463075D03*
X72428543Y-90698809D03*
D10*
X77431366Y-91580942D03*
%TD*%
D12*
%TO.C,MX21*%
X208685240Y-95162010D03*
X218690886Y-93397744D03*
D10*
X213688063Y-94279877D03*
%TD*%
%TO.C,MX33*%
X226376357Y-111386467D03*
D12*
X221373534Y-112268600D03*
X231379180Y-110504334D03*
%TD*%
%TO.C,MX37*%
X82853417Y-131224747D03*
D10*
X77850594Y-130342614D03*
D12*
X72847771Y-129460481D03*
%TD*%
D10*
%TO.C,MX23*%
X259532932Y-90284793D03*
D12*
X254452932Y-90284793D03*
X264612932Y-90284793D03*
%TD*%
%TO.C,MX5*%
X118573217Y-79491480D03*
X108567571Y-77727214D03*
D10*
X113570394Y-78609347D03*
%TD*%
%TO.C,MX9*%
X205689921Y-76346288D03*
D12*
X210692744Y-75464155D03*
X200687098Y-77228421D03*
%TD*%
%TO.C,MX19*%
X171164068Y-101778007D03*
X181169714Y-100013741D03*
D10*
X176166891Y-100895874D03*
%TD*%
D12*
%TO.C,MX18*%
X128710307Y-100622799D03*
D10*
X133713130Y-101504932D03*
D12*
X138715953Y-102387065D03*
%TD*%
%TO.C,MX24*%
X31533884Y-109351443D03*
D10*
X36613884Y-109351443D03*
D12*
X41693884Y-109351443D03*
%TD*%
%TO.C,MX10*%
X229453330Y-72156157D03*
X219447684Y-73920423D03*
D10*
X224450507Y-73038290D03*
%TD*%
D12*
%TO.C,MX16*%
X91189133Y-94006803D03*
X101194779Y-95771069D03*
D10*
X96191956Y-94888936D03*
%TD*%
D12*
%TO.C,MX17*%
X109949719Y-97314800D03*
D10*
X114952542Y-98196933D03*
D12*
X119955365Y-99079066D03*
%TD*%
%TO.C,MX29*%
X134782604Y-121037386D03*
D10*
X139785427Y-121919519D03*
D12*
X144788250Y-122801652D03*
%TD*%
%TO.C,MX28*%
X116022015Y-117729388D03*
X126027661Y-119493654D03*
D10*
X121024838Y-118611521D03*
%TD*%
D12*
%TO.C,MX34*%
X251760534Y-109334791D03*
X241600534Y-109334791D03*
D10*
X246680534Y-109334791D03*
%TD*%
%TO.C,MX7*%
X168168745Y-82962284D03*
D12*
X163165922Y-83844417D03*
X173171568Y-82080151D03*
%TD*%
%TO.C,MX6*%
X127328157Y-81035212D03*
D10*
X132330980Y-81917345D03*
D12*
X137333803Y-82799478D03*
%TD*%
%TO.C,MX4*%
X99812628Y-76183482D03*
D10*
X94809805Y-75301349D03*
D12*
X89806982Y-74419216D03*
%TD*%
%TO.C,MX25*%
X67887633Y-109351442D03*
D10*
X62807633Y-109351442D03*
D12*
X57727633Y-109351442D03*
%TD*%
%TO.C,MX3*%
X71046395Y-71111220D03*
X81052041Y-72875486D03*
D10*
X76049218Y-71993353D03*
%TD*%
D12*
%TO.C,MX32*%
X212618592Y-113812332D03*
D10*
X207615769Y-114694465D03*
D12*
X202612946Y-115576598D03*
%TD*%
D10*
%TO.C,MX2*%
X55210631Y-71251443D03*
D12*
X60290631Y-71251443D03*
X50130631Y-71251443D03*
%TD*%
%TO.C,MX1*%
X41240631Y-71251442D03*
D10*
X36160631Y-71251442D03*
D12*
X31080631Y-71251442D03*
%TD*%
%TO.C,MX41*%
X256815134Y-128384792D03*
X266975134Y-128384792D03*
D10*
X261895134Y-128384792D03*
%TD*%
%TO.C,MX20*%
X194927478Y-97587876D03*
D12*
X199930301Y-96705743D03*
X189924655Y-98470009D03*
%TD*%
%TO.C,MX8*%
X181926509Y-80536417D03*
D10*
X186929332Y-79654284D03*
D12*
X191932155Y-78772151D03*
%TD*%
D10*
%TO.C,MX12*%
X263806484Y-71234791D03*
D12*
X258726484Y-71234791D03*
X268886484Y-71234791D03*
%TD*%
D10*
%TO.C,MX35*%
X268092733Y-109334792D03*
D12*
X263012733Y-109334792D03*
X273172733Y-109334792D03*
%TD*%
D13*
%TO.C,RESET*%
X156219004Y-143230695D03*
D14*
X153679004Y-143230695D03*
%TD*%
D15*
%TO.C,USB1*%
X157503131Y-72510591D03*
D16*
X148863131Y-68330591D03*
X157503131Y-68330591D03*
D15*
X148863131Y-72510591D03*
D17*
X150293131Y-71980591D03*
X156073131Y-71980591D03*
%TD*%
M02*
