%TF.GenerationSoftware,KiCad,Pcbnew,(6.0.1)*%
%TF.CreationDate,2022-05-18T11:52:05+02:00*%
%TF.ProjectId,3liza,336c697a-612e-46b6-9963-61645f706362,rev?*%
%TF.SameCoordinates,Original*%
%TF.FileFunction,Soldermask,Bot*%
%TF.FilePolarity,Negative*%
%FSLAX46Y46*%
G04 Gerber Fmt 4.6, Leading zero omitted, Abs format (unit mm)*
G04 Created by KiCad (PCBNEW (6.0.1)) date 2022-05-18 11:52:05*
%MOMM*%
%LPD*%
G01*
G04 APERTURE LIST*
G04 Aperture macros list*
%AMRoundRect*
0 Rectangle with rounded corners*
0 $1 Rounding radius*
0 $2 $3 $4 $5 $6 $7 $8 $9 X,Y pos of 4 corners*
0 Add a 4 corners polygon primitive as box body*
4,1,4,$2,$3,$4,$5,$6,$7,$8,$9,$2,$3,0*
0 Add four circle primitives for the rounded corners*
1,1,$1+$1,$2,$3*
1,1,$1+$1,$4,$5*
1,1,$1+$1,$6,$7*
1,1,$1+$1,$8,$9*
0 Add four rect primitives between the rounded corners*
20,1,$1+$1,$2,$3,$4,$5,0*
20,1,$1+$1,$4,$5,$6,$7,0*
20,1,$1+$1,$6,$7,$8,$9,0*
20,1,$1+$1,$8,$9,$2,$3,0*%
%AMRotRect*
0 Rectangle, with rotation*
0 The origin of the aperture is its center*
0 $1 length*
0 $2 width*
0 $3 Rotation angle, in degrees counterclockwise*
0 Add horizontal line*
21,1,$1,$2,0,0,$3*%
G04 Aperture macros list end*
%ADD10C,3.987800*%
%ADD11C,3.048000*%
%ADD12C,1.750000*%
%ADD13C,2.250000*%
%ADD14RotRect,1.600000X0.550000X135.000000*%
%ADD15RotRect,1.600000X0.550000X225.000000*%
%ADD16RotRect,0.900000X0.800000X260.000000*%
%ADD17O,1.700000X1.700000*%
%ADD18R,1.700000X1.700000*%
%ADD19RoundRect,0.250000X0.159099X-0.512652X0.512652X-0.159099X-0.159099X0.512652X-0.512652X0.159099X0*%
%ADD20R,0.800000X0.900000*%
%ADD21RoundRect,0.250000X-0.450000X0.262500X-0.450000X-0.262500X0.450000X-0.262500X0.450000X0.262500X0*%
%ADD22RoundRect,0.250000X0.503814X0.132583X0.132583X0.503814X-0.503814X-0.132583X-0.132583X-0.503814X0*%
%ADD23RoundRect,0.250000X-0.250000X-0.475000X0.250000X-0.475000X0.250000X0.475000X-0.250000X0.475000X0*%
%ADD24RotRect,0.900000X0.800000X280.000000*%
%ADD25O,1.000000X2.100000*%
%ADD26O,1.000000X1.600000*%
%ADD27R,0.600000X1.450000*%
%ADD28R,0.300000X1.450000*%
%ADD29C,0.650000*%
%ADD30RoundRect,0.250000X0.262500X0.450000X-0.262500X0.450000X-0.262500X-0.450000X0.262500X-0.450000X0*%
%ADD31RoundRect,0.250000X0.625000X-0.375000X0.625000X0.375000X-0.625000X0.375000X-0.625000X-0.375000X0*%
%ADD32RoundRect,0.250000X0.512652X0.159099X0.159099X0.512652X-0.512652X-0.159099X-0.159099X-0.512652X0*%
%ADD33RotRect,1.400000X1.200000X315.000000*%
%ADD34RoundRect,0.250000X-0.159099X0.512652X-0.512652X0.159099X0.159099X-0.512652X0.512652X-0.159099X0*%
%ADD35RoundRect,0.150000X-0.512500X-0.150000X0.512500X-0.150000X0.512500X0.150000X-0.512500X0.150000X0*%
%ADD36RoundRect,0.250000X-0.262500X-0.450000X0.262500X-0.450000X0.262500X0.450000X-0.262500X0.450000X0*%
G04 APERTURE END LIST*
D10*
%TO.C,MX39*%
X200110008Y-126979462D03*
X176659273Y-131114460D03*
D11*
X202756406Y-141987933D03*
X179305671Y-146122930D03*
D12*
X194820929Y-136294416D03*
X184815283Y-138058682D03*
D13*
X185624922Y-135336737D03*
D10*
X189818106Y-137176549D03*
D13*
X191437385Y-131732659D03*
%TD*%
D10*
%TO.C,MX38*%
X128530601Y-130896519D03*
X105079866Y-126761521D03*
D11*
X125884203Y-145904989D03*
X102433468Y-141769992D03*
D12*
X120374591Y-137840741D03*
X110368945Y-136076475D03*
D13*
X112060717Y-133795597D03*
D10*
X115371768Y-136958608D03*
D13*
X118755312Y-132396851D03*
%TD*%
D14*
%TO.C,U1*%
X153384391Y-99291408D03*
X152818706Y-99857094D03*
X152253020Y-100422779D03*
X151687335Y-100988464D03*
X151121649Y-101554150D03*
X150555964Y-102119835D03*
X149990279Y-102685521D03*
X149424593Y-103251206D03*
D15*
X149424593Y-105301816D03*
X149990279Y-105867501D03*
X150555964Y-106433187D03*
X151121649Y-106998872D03*
X151687335Y-107564558D03*
X152253020Y-108130243D03*
X152818706Y-108695928D03*
X153384391Y-109261614D03*
D14*
X155435001Y-109261614D03*
X156000686Y-108695928D03*
X156566372Y-108130243D03*
X157132057Y-107564558D03*
X157697743Y-106998872D03*
X158263428Y-106433187D03*
X158829113Y-105867501D03*
X159394799Y-105301816D03*
D15*
X159394799Y-103251206D03*
X158829113Y-102685521D03*
X158263428Y-102119835D03*
X157697743Y-101554150D03*
X157132057Y-100988464D03*
X156566372Y-100422779D03*
X156000686Y-99857094D03*
X155435001Y-99291408D03*
%TD*%
D13*
%TO.C,MX22*%
X234067932Y-85527990D03*
X228255469Y-89132068D03*
D12*
X237451476Y-90089747D03*
X227445830Y-91854013D03*
D10*
X232448653Y-90971880D03*
%TD*%
D13*
%TO.C,MX30*%
X171713871Y-115866570D03*
X165901408Y-119470648D03*
D12*
X175097415Y-120428327D03*
D10*
X170094592Y-121310460D03*
D12*
X165091769Y-122192593D03*
%TD*%
D13*
%TO.C,MX27*%
X105647794Y-110741766D03*
X98953199Y-112140512D03*
D12*
X97261427Y-114421390D03*
X107267073Y-116185656D03*
D10*
X102264250Y-115303523D03*
%TD*%
D13*
%TO.C,MX13*%
X38220431Y-85221443D03*
X31870431Y-87761443D03*
D12*
X40760431Y-90301443D03*
D10*
X35680431Y-90301443D03*
D12*
X30600431Y-90301443D03*
%TD*%
D13*
%TO.C,MX40*%
X224268415Y-125943664D03*
X218455952Y-129547742D03*
D12*
X227651959Y-130505421D03*
X217646313Y-132269687D03*
D10*
X222649136Y-131387554D03*
%TD*%
D13*
%TO.C,MX11*%
X247296485Y-66154792D03*
X240946485Y-68694792D03*
D12*
X249836485Y-71234792D03*
X239676485Y-71234792D03*
D10*
X244756485Y-71234792D03*
%TD*%
D13*
%TO.C,MX36*%
X40605733Y-123323843D03*
X34255733Y-125863843D03*
D12*
X32985733Y-128403843D03*
D10*
X38065733Y-128403843D03*
D12*
X43145733Y-128403843D03*
%TD*%
D13*
%TO.C,MX26*%
X86887206Y-107433768D03*
X80192611Y-108832514D03*
D10*
X83503662Y-111995525D03*
D12*
X88506485Y-112877658D03*
X78500839Y-111113392D03*
%TD*%
D13*
%TO.C,MX14*%
X57270434Y-85221442D03*
X50920434Y-87761442D03*
D10*
X54730434Y-90301442D03*
D12*
X49650434Y-90301442D03*
X59810434Y-90301442D03*
%TD*%
D13*
%TO.C,MX31*%
X190474462Y-112558571D03*
X184661999Y-116162649D03*
D12*
X183852360Y-118884594D03*
X193858006Y-117120328D03*
D10*
X188855183Y-118002461D03*
%TD*%
D13*
%TO.C,MX15*%
X80814910Y-87019185D03*
X74120315Y-88417931D03*
D12*
X82434189Y-92463075D03*
X72428543Y-90698809D03*
D10*
X77431366Y-91580942D03*
%TD*%
D13*
%TO.C,MX21*%
X215307342Y-88835987D03*
X209494879Y-92440065D03*
D12*
X208685240Y-95162010D03*
X218690886Y-93397744D03*
D10*
X213688063Y-94279877D03*
%TD*%
D13*
%TO.C,MX33*%
X227995636Y-105942577D03*
X222183173Y-109546655D03*
D10*
X226376357Y-111386467D03*
D12*
X221373534Y-112268600D03*
X231379180Y-110504334D03*
%TD*%
D13*
%TO.C,MX37*%
X81234138Y-125780857D03*
X74539543Y-127179603D03*
D12*
X82853417Y-131224747D03*
D10*
X77850594Y-130342614D03*
D12*
X72847771Y-129460481D03*
%TD*%
D13*
%TO.C,MX23*%
X262072932Y-85204793D03*
X255722932Y-87744793D03*
D10*
X259532932Y-90284793D03*
D12*
X254452932Y-90284793D03*
X264612932Y-90284793D03*
%TD*%
D13*
%TO.C,MX5*%
X116953938Y-74047590D03*
X110259343Y-75446336D03*
D12*
X118573217Y-79491480D03*
X108567571Y-77727214D03*
D10*
X113570394Y-78609347D03*
%TD*%
D13*
%TO.C,MX9*%
X207309200Y-70902398D03*
X201496737Y-74506476D03*
D10*
X205689921Y-76346288D03*
D12*
X210692744Y-75464155D03*
X200687098Y-77228421D03*
%TD*%
D13*
%TO.C,MX19*%
X177786170Y-95451984D03*
X171973707Y-99056062D03*
D12*
X171164068Y-101778007D03*
X181169714Y-100013741D03*
D10*
X176166891Y-100895874D03*
%TD*%
D13*
%TO.C,MX18*%
X137096674Y-96943175D03*
X130402079Y-98341921D03*
D12*
X128710307Y-100622799D03*
D10*
X133713130Y-101504932D03*
D12*
X138715953Y-102387065D03*
%TD*%
D13*
%TO.C,MX24*%
X39153884Y-104271443D03*
X32803884Y-106811443D03*
D12*
X31533884Y-109351443D03*
D10*
X36613884Y-109351443D03*
D12*
X41693884Y-109351443D03*
%TD*%
D13*
%TO.C,MX10*%
X226069786Y-67594400D03*
X220257323Y-71198478D03*
D12*
X229453330Y-72156157D03*
X219447684Y-73920423D03*
D10*
X224450507Y-73038290D03*
%TD*%
D13*
%TO.C,MX16*%
X99575500Y-90327179D03*
X92880905Y-91725925D03*
D12*
X91189133Y-94006803D03*
X101194779Y-95771069D03*
D10*
X96191956Y-94888936D03*
%TD*%
D13*
%TO.C,MX17*%
X118336086Y-93635176D03*
X111641491Y-95033922D03*
D12*
X109949719Y-97314800D03*
D10*
X114952542Y-98196933D03*
D12*
X119955365Y-99079066D03*
%TD*%
D13*
%TO.C,MX29*%
X143168971Y-117357762D03*
X136474376Y-118756508D03*
D12*
X134782604Y-121037386D03*
D10*
X139785427Y-121919519D03*
D12*
X144788250Y-122801652D03*
%TD*%
D13*
%TO.C,MX28*%
X124408382Y-114049764D03*
X117713787Y-115448510D03*
D12*
X116022015Y-117729388D03*
X126027661Y-119493654D03*
D10*
X121024838Y-118611521D03*
%TD*%
D13*
%TO.C,MX34*%
X249220534Y-104254791D03*
X242870534Y-106794791D03*
D12*
X251760534Y-109334791D03*
X241600534Y-109334791D03*
D10*
X246680534Y-109334791D03*
%TD*%
D13*
%TO.C,MX7*%
X169788024Y-77518394D03*
X163975561Y-81122472D03*
D10*
X168168745Y-82962284D03*
D12*
X163165922Y-83844417D03*
X173171568Y-82080151D03*
%TD*%
D13*
%TO.C,MX6*%
X135714524Y-77355588D03*
X129019929Y-78754334D03*
D12*
X127328157Y-81035212D03*
D10*
X132330980Y-81917345D03*
D12*
X137333803Y-82799478D03*
%TD*%
D13*
%TO.C,MX4*%
X98193349Y-70739592D03*
X91498754Y-72138338D03*
D12*
X99812628Y-76183482D03*
D10*
X94809805Y-75301349D03*
D12*
X89806982Y-74419216D03*
%TD*%
D13*
%TO.C,MX25*%
X65347633Y-104271442D03*
X58997633Y-106811442D03*
D12*
X67887633Y-109351442D03*
D10*
X62807633Y-109351442D03*
D12*
X57727633Y-109351442D03*
%TD*%
D13*
%TO.C,MX3*%
X79432762Y-67431596D03*
X72738167Y-68830342D03*
D12*
X71046395Y-71111220D03*
X81052041Y-72875486D03*
D10*
X76049218Y-71993353D03*
%TD*%
D13*
%TO.C,MX32*%
X209235048Y-109250575D03*
X203422585Y-112854653D03*
D12*
X212618592Y-113812332D03*
D10*
X207615769Y-114694465D03*
D12*
X202612946Y-115576598D03*
%TD*%
D13*
%TO.C,MX2*%
X57750631Y-66171443D03*
X51400631Y-68711443D03*
D10*
X55210631Y-71251443D03*
D12*
X60290631Y-71251443D03*
X50130631Y-71251443D03*
%TD*%
D13*
%TO.C,MX1*%
X38700631Y-66171442D03*
X32350631Y-68711442D03*
D12*
X41240631Y-71251442D03*
D10*
X36160631Y-71251442D03*
D12*
X31080631Y-71251442D03*
%TD*%
D13*
%TO.C,MX41*%
X264435134Y-123304792D03*
X258085134Y-125844792D03*
D12*
X256815134Y-128384792D03*
X266975134Y-128384792D03*
D10*
X261895134Y-128384792D03*
%TD*%
D13*
%TO.C,MX20*%
X196546757Y-92143986D03*
X190734294Y-95748064D03*
D10*
X194927478Y-97587876D03*
D12*
X199930301Y-96705743D03*
X189924655Y-98470009D03*
%TD*%
D13*
%TO.C,MX8*%
X188548611Y-74210394D03*
X182736148Y-77814472D03*
D12*
X181926509Y-80536417D03*
D10*
X186929332Y-79654284D03*
D12*
X191932155Y-78772151D03*
%TD*%
D13*
%TO.C,MX12*%
X266346484Y-66154791D03*
X259996484Y-68694791D03*
D10*
X263806484Y-71234791D03*
D12*
X258726484Y-71234791D03*
X268886484Y-71234791D03*
%TD*%
D13*
%TO.C,MX35*%
X270632733Y-104254792D03*
X264282733Y-106794792D03*
D10*
X268092733Y-109334792D03*
D12*
X263012733Y-109334792D03*
X273172733Y-109334792D03*
%TD*%
D16*
%TO.C,D15*%
X129707920Y-124903748D03*
X129119649Y-122769166D03*
X130990784Y-123099098D03*
%TD*%
D17*
%TO.C,RESET*%
X156219004Y-143230695D03*
D18*
X153679004Y-143230695D03*
%TD*%
D19*
%TO.C,C5*%
X161258357Y-100614737D03*
X162601859Y-99271235D03*
%TD*%
D20*
%TO.C,D12*%
X249950005Y-94700694D03*
X249000005Y-92700694D03*
X250900005Y-92700694D03*
%TD*%
D21*
%TO.C,R4*%
X152146772Y-84676679D03*
X152146772Y-86501679D03*
%TD*%
D22*
%TO.C,R6*%
X145557937Y-106533944D03*
X146848407Y-107824414D03*
%TD*%
D16*
%TO.C,D20*%
X134066089Y-145531921D03*
X133477818Y-143397339D03*
X135348953Y-143727271D03*
%TD*%
D20*
%TO.C,D19*%
X65200774Y-133373682D03*
X64250774Y-131373682D03*
X66150774Y-131373682D03*
%TD*%
D21*
%TO.C,R3*%
X154192003Y-84667341D03*
X154192003Y-86492341D03*
%TD*%
D20*
%TO.C,D18*%
X257570004Y-113496693D03*
X256620004Y-111496693D03*
X258520004Y-111496693D03*
%TD*%
%TO.C,D1*%
X45690333Y-76070189D03*
X44740333Y-74070189D03*
X46640333Y-74070189D03*
%TD*%
%TO.C,D6*%
X254268004Y-75650693D03*
X253318004Y-73650693D03*
X255218004Y-73650693D03*
%TD*%
D23*
%TO.C,C1*%
X157026604Y-89966893D03*
X158926604Y-89966893D03*
%TD*%
D24*
%TO.C,D16*%
X180477553Y-124302514D03*
X179194689Y-122497864D03*
X181065824Y-122167932D03*
%TD*%
D16*
%TO.C,D9*%
X123510556Y-104467106D03*
X122922285Y-102332524D03*
X124793420Y-102662456D03*
%TD*%
%TO.C,D2*%
X84544699Y-78252498D03*
X83956428Y-76117916D03*
X85827563Y-76447848D03*
%TD*%
D19*
%TO.C,C3*%
X162820924Y-102177301D03*
X164164426Y-100833799D03*
%TD*%
D20*
%TO.C,D13*%
X49525732Y-114017791D03*
X48575732Y-112017791D03*
X50475732Y-112017791D03*
%TD*%
D25*
%TO.C,USB1*%
X157503131Y-72510591D03*
D26*
X148863131Y-68330591D03*
X157503131Y-68330591D03*
D25*
X148863131Y-72510591D03*
D27*
X149933131Y-73425591D03*
X150733131Y-73425591D03*
D28*
X151433131Y-73425591D03*
X152433131Y-73425591D03*
X153933131Y-73425591D03*
X154933131Y-73425591D03*
D27*
X155633131Y-73425591D03*
X156433131Y-73425591D03*
X156433131Y-73425591D03*
X155633131Y-73425591D03*
D28*
X154433131Y-73425591D03*
X153433131Y-73425591D03*
X152933131Y-73425591D03*
X151933131Y-73425591D03*
D27*
X150733131Y-73425591D03*
X149933131Y-73425591D03*
D29*
X150293131Y-71980591D03*
X156073131Y-71980591D03*
%TD*%
D30*
%TO.C,R2*%
X162470505Y-75666695D03*
X160645505Y-75666695D03*
%TD*%
D16*
%TO.C,D14*%
X92186745Y-118287749D03*
X91598474Y-116153167D03*
X93469609Y-116483099D03*
%TD*%
D31*
%TO.C,F1*%
X156986004Y-81638694D03*
X156986004Y-78838694D03*
%TD*%
D22*
%TO.C,R5*%
X160560714Y-111456631D03*
X159270244Y-110166161D03*
%TD*%
D24*
%TO.C,D17*%
X217748589Y-117730626D03*
X216465725Y-115925976D03*
X218336860Y-115596044D03*
%TD*%
D32*
%TO.C,C2*%
X152490093Y-96250332D03*
X151146591Y-94906830D03*
%TD*%
D33*
%TO.C,X1*%
X159418466Y-96229261D03*
X160974101Y-97784896D03*
X159772020Y-98986977D03*
X158216385Y-97431342D03*
%TD*%
D34*
%TO.C,C4*%
X157932127Y-94601502D03*
X156588625Y-95945004D03*
%TD*%
D20*
%TO.C,D7*%
X45182331Y-94688390D03*
X44232331Y-92688390D03*
X46132331Y-92688390D03*
%TD*%
D24*
%TO.C,D4*%
X178364097Y-85987419D03*
X177081233Y-84182769D03*
X178952368Y-83852837D03*
%TD*%
D35*
%TO.C,U2*%
X152089303Y-81137895D03*
X152089303Y-80187895D03*
X152089303Y-79237895D03*
X154364303Y-79237895D03*
X154364303Y-80187895D03*
X154364303Y-81137895D03*
%TD*%
D20*
%TO.C,D21*%
X234964005Y-134578694D03*
X234014005Y-132578694D03*
X235914005Y-132578694D03*
%TD*%
D16*
%TO.C,D8*%
X85989381Y-97851108D03*
X85401110Y-95716526D03*
X87272245Y-96046458D03*
%TD*%
D24*
%TO.C,D10*%
X186468886Y-104160120D03*
X185186022Y-102355470D03*
X187057157Y-102025538D03*
%TD*%
D16*
%TO.C,D3*%
X122065872Y-84868492D03*
X121477601Y-82733910D03*
X123348736Y-83063842D03*
%TD*%
D32*
%TO.C,C6*%
X147676673Y-100309407D03*
X146333171Y-98965905D03*
%TD*%
D36*
%TO.C,R1*%
X143881504Y-75666695D03*
X145706504Y-75666695D03*
%TD*%
D24*
%TO.C,D5*%
X215885274Y-79371423D03*
X214602410Y-77566773D03*
X216473545Y-77236841D03*
%TD*%
%TO.C,D11*%
X223990062Y-97544126D03*
X222707198Y-95739476D03*
X224578333Y-95409544D03*
%TD*%
M02*
