M48
; DRILL file {KiCad (6.0.1)} date Wed May 18 11:51:41 2022
; FORMAT={-:-/ absolute / metric / decimal}
; #@! TF.CreationDate,2022-05-18T11:51:41+02:00
; #@! TF.GenerationSoftware,Kicad,Pcbnew,(6.0.1)
; #@! TF.FileFunction,Plated,1,2,PTH
FMAT,2
METRIC
; #@! TA.AperFunction,Plated,PTH,ViaDrill
T1C0.400
; #@! TA.AperFunction,Plated,PTH,ComponentDrill
T2C0.600
; #@! TA.AperFunction,Plated,PTH,ComponentDrill
T3C1.000
; #@! TA.AperFunction,Plated,PTH,ComponentDrill
T4C1.470
%
G90
G05
T1
X32.462Y-96.775
X51.512Y-97.934
X74.29Y-100.403
X93.251Y-103.997
X112.484Y-107.98
X131.717Y-111.962
X140.899Y-107.587
X143.206Y-88.65
X144.07Y-105.046
X145.289Y-109.414
X149.605Y-90.558
X150.738Y-75.971
X151.645Y-90.566
X153.823Y-94.886
X155.665Y-76.022
X157.023Y-91.745
X162.358Y-111.802
X163.501Y-88.607
X164.339Y-103.623
X171.006Y-106.887
X183.18Y-143.71
X184.05Y-106.418
X189.49Y-109.267
X208.87Y-105.076
X228.228Y-100.914
X241.606Y-98.543
X256.388Y-97.283
T3
X153.679Y-143.231
X156.219Y-143.231
T4
X31.87Y-87.761
X32.351Y-68.711
X32.804Y-106.811
X34.256Y-125.864
X38.22Y-85.221
X38.701Y-66.171
X39.154Y-104.271
X40.606Y-123.324
X50.92Y-87.761
X51.401Y-68.711
X57.27Y-85.221
X57.751Y-66.171
X58.998Y-106.811
X65.348Y-104.271
X72.738Y-68.83
X74.12Y-88.418
X74.54Y-127.18
X79.433Y-67.432
X80.193Y-108.833
X80.815Y-87.019
X81.234Y-125.781
X86.887Y-107.434
X91.499Y-72.138
X92.881Y-91.726
X98.193Y-70.74
X98.953Y-112.141
X99.575Y-90.327
X105.648Y-110.742
X110.259Y-75.446
X111.641Y-95.034
X112.061Y-133.796
X116.954Y-74.048
X117.714Y-115.449
X118.336Y-93.635
X118.755Y-132.397
X124.408Y-114.05
X129.02Y-78.754
X130.402Y-98.342
X135.715Y-77.356
X136.474Y-118.757
X137.097Y-96.943
X143.169Y-117.358
X163.976Y-81.122
X165.901Y-119.471
X169.788Y-77.518
X171.714Y-115.867
X171.974Y-99.056
X177.786Y-95.452
X182.736Y-77.814
X184.662Y-116.163
X185.625Y-135.337
X188.549Y-74.21
X190.474Y-112.559
X190.734Y-95.748
X191.437Y-131.733
X196.547Y-92.144
X201.497Y-74.506
X203.423Y-112.855
X207.309Y-70.902
X209.235Y-109.251
X209.495Y-92.44
X215.307Y-88.836
X218.456Y-129.548
X220.257Y-71.198
X222.183Y-109.547
X224.268Y-125.944
X226.07Y-67.594
X227.996Y-105.943
X228.255Y-89.132
X234.068Y-85.528
X240.946Y-68.695
X242.871Y-106.795
X247.296Y-66.155
X249.221Y-104.255
X255.723Y-87.745
X258.085Y-125.845
X259.996Y-68.695
X262.073Y-85.205
X264.283Y-106.795
X264.435Y-123.305
X266.346Y-66.155
X270.633Y-104.255
T2
X148.863Y-68.031G85X148.863Y-68.631
G05
X148.863Y-71.961G85X148.863Y-73.061
G05
X157.503Y-68.031G85X157.503Y-68.631
G05
X157.503Y-71.961G85X157.503Y-73.061
G05
T0
M30
