%TF.GenerationSoftware,KiCad,Pcbnew,7.0.6*%
%TF.CreationDate,2024-02-24T13:08:40+01:00*%
%TF.ProjectId,Eliza,456c697a-612e-46b6-9963-61645f706362,rev?*%
%TF.SameCoordinates,Original*%
%TF.FileFunction,Paste,Bot*%
%TF.FilePolarity,Positive*%
%FSLAX46Y46*%
G04 Gerber Fmt 4.6, Leading zero omitted, Abs format (unit mm)*
G04 Created by KiCad (PCBNEW 7.0.6) date 2024-02-24 13:08:40*
%MOMM*%
%LPD*%
G01*
G04 APERTURE LIST*
G04 Aperture macros list*
%AMRoundRect*
0 Rectangle with rounded corners*
0 $1 Rounding radius*
0 $2 $3 $4 $5 $6 $7 $8 $9 X,Y pos of 4 corners*
0 Add a 4 corners polygon primitive as box body*
4,1,4,$2,$3,$4,$5,$6,$7,$8,$9,$2,$3,0*
0 Add four circle primitives for the rounded corners*
1,1,$1+$1,$2,$3*
1,1,$1+$1,$4,$5*
1,1,$1+$1,$6,$7*
1,1,$1+$1,$8,$9*
0 Add four rect primitives between the rounded corners*
20,1,$1+$1,$2,$3,$4,$5,0*
20,1,$1+$1,$4,$5,$6,$7,0*
20,1,$1+$1,$6,$7,$8,$9,0*
20,1,$1+$1,$8,$9,$2,$3,0*%
%AMRotRect*
0 Rectangle, with rotation*
0 The origin of the aperture is its center*
0 $1 length*
0 $2 width*
0 $3 Rotation angle, in degrees counterclockwise*
0 Add horizontal line*
21,1,$1,$2,0,0,$3*%
G04 Aperture macros list end*
%ADD10RotRect,0.900000X0.800000X260.000000*%
%ADD11RoundRect,0.250000X0.159099X-0.512652X0.512652X-0.159099X-0.159099X0.512652X-0.512652X0.159099X0*%
%ADD12R,0.800000X0.900000*%
%ADD13RoundRect,0.250000X-0.450000X0.262500X-0.450000X-0.262500X0.450000X-0.262500X0.450000X0.262500X0*%
%ADD14RoundRect,0.250000X0.503814X0.132583X0.132583X0.503814X-0.503814X-0.132583X-0.132583X-0.503814X0*%
%ADD15RoundRect,0.250000X-0.250000X-0.475000X0.250000X-0.475000X0.250000X0.475000X-0.250000X0.475000X0*%
%ADD16RotRect,0.900000X0.800000X280.000000*%
%ADD17RotRect,1.600000X0.550000X225.000000*%
%ADD18RotRect,1.600000X0.550000X135.000000*%
%ADD19R,0.600000X1.450000*%
%ADD20R,0.300000X1.450000*%
%ADD21RoundRect,0.250000X0.262500X0.450000X-0.262500X0.450000X-0.262500X-0.450000X0.262500X-0.450000X0*%
%ADD22RoundRect,0.250000X0.625000X-0.375000X0.625000X0.375000X-0.625000X0.375000X-0.625000X-0.375000X0*%
%ADD23RoundRect,0.250000X0.512652X0.159099X0.159099X0.512652X-0.512652X-0.159099X-0.159099X-0.512652X0*%
%ADD24RotRect,1.400000X1.200000X315.000000*%
%ADD25RoundRect,0.250000X-0.159099X0.512652X-0.512652X0.159099X0.159099X-0.512652X0.512652X-0.159099X0*%
%ADD26RoundRect,0.150000X-0.512500X-0.150000X0.512500X-0.150000X0.512500X0.150000X-0.512500X0.150000X0*%
%ADD27RoundRect,0.250000X-0.262500X-0.450000X0.262500X-0.450000X0.262500X0.450000X-0.262500X0.450000X0*%
G04 APERTURE END LIST*
D10*
%TO.C,D15*%
X129707920Y-124903748D03*
X129119649Y-122769166D03*
X130990784Y-123099098D03*
%TD*%
D11*
%TO.C,C5*%
X161258357Y-100614737D03*
X162601859Y-99271235D03*
%TD*%
D12*
%TO.C,D12*%
X249950005Y-94700694D03*
X249000005Y-92700694D03*
X250900005Y-92700694D03*
%TD*%
D13*
%TO.C,R4*%
X152146772Y-84676679D03*
X152146772Y-86501679D03*
%TD*%
D14*
%TO.C,R6*%
X146848407Y-107824414D03*
X145557937Y-106533944D03*
%TD*%
D10*
%TO.C,D20*%
X134066089Y-145531921D03*
X133477818Y-143397339D03*
X135348953Y-143727271D03*
%TD*%
D12*
%TO.C,D19*%
X65200774Y-133373682D03*
X64250774Y-131373682D03*
X66150774Y-131373682D03*
%TD*%
D13*
%TO.C,R3*%
X154192003Y-84667341D03*
X154192003Y-86492341D03*
%TD*%
D12*
%TO.C,D18*%
X257570004Y-113496693D03*
X256620004Y-111496693D03*
X258520004Y-111496693D03*
%TD*%
%TO.C,D1*%
X45690333Y-76070189D03*
X44740333Y-74070189D03*
X46640333Y-74070189D03*
%TD*%
%TO.C,D6*%
X254268004Y-75650693D03*
X253318004Y-73650693D03*
X255218004Y-73650693D03*
%TD*%
D15*
%TO.C,C1*%
X157026604Y-89966893D03*
X158926604Y-89966893D03*
%TD*%
D16*
%TO.C,D16*%
X180477553Y-124302514D03*
X179194689Y-122497864D03*
X181065824Y-122167932D03*
%TD*%
D10*
%TO.C,D9*%
X123510556Y-104467106D03*
X122922285Y-102332524D03*
X124793420Y-102662456D03*
%TD*%
%TO.C,D2*%
X84544699Y-78252498D03*
X83956428Y-76117916D03*
X85827563Y-76447848D03*
%TD*%
D17*
%TO.C,U1*%
X155435001Y-99291408D03*
X156000686Y-99857094D03*
X156566372Y-100422779D03*
X157132057Y-100988464D03*
X157697743Y-101554150D03*
X158263428Y-102119835D03*
X158829113Y-102685521D03*
X159394799Y-103251206D03*
D18*
X159394799Y-105301816D03*
X158829113Y-105867501D03*
X158263428Y-106433187D03*
X157697743Y-106998872D03*
X157132057Y-107564558D03*
X156566372Y-108130243D03*
X156000686Y-108695928D03*
X155435001Y-109261614D03*
D17*
X153384391Y-109261614D03*
X152818706Y-108695928D03*
X152253020Y-108130243D03*
X151687335Y-107564558D03*
X151121649Y-106998872D03*
X150555964Y-106433187D03*
X149990279Y-105867501D03*
X149424593Y-105301816D03*
D18*
X149424593Y-103251206D03*
X149990279Y-102685521D03*
X150555964Y-102119835D03*
X151121649Y-101554150D03*
X151687335Y-100988464D03*
X152253020Y-100422779D03*
X152818706Y-99857094D03*
X153384391Y-99291408D03*
%TD*%
D11*
%TO.C,C3*%
X162820924Y-102177301D03*
X164164426Y-100833799D03*
%TD*%
D12*
%TO.C,D13*%
X49525732Y-114017791D03*
X48575732Y-112017791D03*
X50475732Y-112017791D03*
%TD*%
D19*
%TO.C,USB1*%
X149933131Y-73425591D03*
X150733131Y-73425591D03*
D20*
X151933131Y-73425591D03*
X152933131Y-73425591D03*
X153433131Y-73425591D03*
X154433131Y-73425591D03*
D19*
X155633131Y-73425591D03*
X156433131Y-73425591D03*
X156433131Y-73425591D03*
X155633131Y-73425591D03*
D20*
X154933131Y-73425591D03*
X153933131Y-73425591D03*
X152433131Y-73425591D03*
X151433131Y-73425591D03*
D19*
X150733131Y-73425591D03*
X149933131Y-73425591D03*
%TD*%
D21*
%TO.C,R2*%
X162470505Y-75666695D03*
X160645505Y-75666695D03*
%TD*%
D10*
%TO.C,D14*%
X92186745Y-118287749D03*
X91598474Y-116153167D03*
X93469609Y-116483099D03*
%TD*%
D22*
%TO.C,F1*%
X156986004Y-81638694D03*
X156986004Y-78838694D03*
%TD*%
D14*
%TO.C,R5*%
X160560714Y-111456631D03*
X159270244Y-110166161D03*
%TD*%
D16*
%TO.C,D17*%
X217748589Y-117730626D03*
X216465725Y-115925976D03*
X218336860Y-115596044D03*
%TD*%
D23*
%TO.C,C2*%
X152490093Y-96250332D03*
X151146591Y-94906830D03*
%TD*%
D24*
%TO.C,X1*%
X159418466Y-96229261D03*
X160974101Y-97784896D03*
X159772020Y-98986977D03*
X158216385Y-97431342D03*
%TD*%
D25*
%TO.C,C4*%
X157932127Y-94601502D03*
X156588625Y-95945004D03*
%TD*%
D12*
%TO.C,D7*%
X45182331Y-94688390D03*
X44232331Y-92688390D03*
X46132331Y-92688390D03*
%TD*%
D16*
%TO.C,D4*%
X178364097Y-85987419D03*
X177081233Y-84182769D03*
X178952368Y-83852837D03*
%TD*%
D26*
%TO.C,U2*%
X152089303Y-81137895D03*
X152089303Y-80187895D03*
X152089303Y-79237895D03*
X154364303Y-79237895D03*
X154364303Y-80187895D03*
X154364303Y-81137895D03*
%TD*%
D12*
%TO.C,D21*%
X234964005Y-134578694D03*
X234014005Y-132578694D03*
X235914005Y-132578694D03*
%TD*%
D10*
%TO.C,D8*%
X85989381Y-97851108D03*
X85401110Y-95716526D03*
X87272245Y-96046458D03*
%TD*%
D16*
%TO.C,D10*%
X186468886Y-104160120D03*
X185186022Y-102355470D03*
X187057157Y-102025538D03*
%TD*%
D10*
%TO.C,D3*%
X122065872Y-84868492D03*
X121477601Y-82733910D03*
X123348736Y-83063842D03*
%TD*%
D23*
%TO.C,C6*%
X147676673Y-100309407D03*
X146333171Y-98965905D03*
%TD*%
D27*
%TO.C,R1*%
X143881504Y-75666695D03*
X145706504Y-75666695D03*
%TD*%
D16*
%TO.C,D5*%
X215885274Y-79371423D03*
X214602410Y-77566773D03*
X216473545Y-77236841D03*
%TD*%
%TO.C,D11*%
X223990062Y-97544126D03*
X222707198Y-95739476D03*
X224578333Y-95409544D03*
%TD*%
M02*
