M48
; DRILL file {KiCad 7.0.6} date Sat Feb 24 13:08:42 2024
; FORMAT={-:-/ absolute / inch / decimal}
; #@! TF.CreationDate,2024-02-24T13:08:42+01:00
; #@! TF.GenerationSoftware,Kicad,Pcbnew,7.0.6
; #@! TF.FileFunction,NonPlated,1,2,NPTH
FMAT,2
INCH
; #@! TA.AperFunction,NonPlated,NPTH,ComponentDrill
T1C0.0256
; #@! TA.AperFunction,NonPlated,NPTH,ComponentDrill
T2C0.0689
; #@! TA.AperFunction,NonPlated,NPTH,ComponentDrill
T3C0.1200
; #@! TA.AperFunction,NonPlated,NPTH,ComponentDrill
T4C0.1570
%
G90
G05
T1
X5.9171Y-2.8339
X6.1446Y-2.8339
T2
X1.2047Y-3.5552
X1.2236Y-2.8052
X1.2415Y-4.3052
X1.2987Y-5.0553
X1.6047Y-3.5552
X1.6236Y-2.8052
X1.6415Y-4.3052
X1.6987Y-5.0553
X1.9547Y-3.5552
X1.9736Y-2.8052
X2.2727Y-4.3052
X2.3547Y-3.5552
X2.3736Y-2.8052
X2.6727Y-4.3052
X2.7971Y-2.7997
X2.8515Y-3.5708
X2.868Y-5.0969
X3.0906Y-4.3745
X3.191Y-2.8691
X3.2454Y-3.6403
X3.2619Y-5.1663
X3.4845Y-4.444
X3.5357Y-2.9299
X3.5901Y-3.7011
X3.8292Y-4.5048
X3.9296Y-2.9993
X3.984Y-3.7705
X4.2231Y-4.5742
X4.2743Y-3.0601
X4.3287Y-3.8313
X4.3452Y-5.3573
X4.5678Y-4.635
X4.6682Y-3.1296
X4.7227Y-3.9008
X4.7392Y-5.4268
X4.9617Y-4.7045
X5.0129Y-3.1904
X5.0673Y-3.9615
X5.3064Y-4.7653
X5.4068Y-3.2598
X5.4613Y-4.031
X5.7003Y-4.8347
X6.4239Y-3.301
X6.4997Y-4.8107
X6.7387Y-4.007
X6.8178Y-3.2315
X6.8936Y-4.7413
X7.1327Y-3.9375
X7.1625Y-3.1707
X7.2383Y-4.6805
X7.2762Y-5.4354
X7.4773Y-3.8768
X7.5564Y-3.1013
X7.6322Y-4.611
X7.6701Y-5.3659
X7.8713Y-3.8073
X7.9011Y-3.0405
X7.9769Y-4.5503
X8.216Y-3.7465
X8.295Y-2.971
X8.3708Y-4.4808
X8.5688Y-5.2075
X8.6099Y-3.6771
X8.6397Y-2.9103
X8.7155Y-4.42
X8.9546Y-3.6163
X8.9627Y-5.138
X9.0336Y-2.8408
X9.1094Y-4.3506
X9.3485Y-3.5468
X9.4361Y-2.8045
X9.5118Y-4.3045
X9.8361Y-2.8045
X9.9118Y-4.3045
X10.0178Y-3.5545
X10.1108Y-5.0545
X10.1861Y-2.8045
X10.3548Y-4.3045
X10.4178Y-3.5545
X10.5108Y-5.0545
X10.5861Y-2.8045
X10.7548Y-4.3045
T3
X4.0328Y-5.5815
X4.9561Y-5.7443
X7.0593Y-5.7529
X7.9825Y-5.5901
T4
X1.4047Y-3.5552
X1.4236Y-2.8052
X1.4415Y-4.3052
X1.4987Y-5.0553
X2.1547Y-3.5552
X2.1736Y-2.8052
X2.4727Y-4.3052
X2.9941Y-2.8344
X3.0485Y-3.6055
X3.065Y-5.1316
X3.2875Y-4.4093
X3.7327Y-2.9646
X3.7871Y-3.7358
X4.0262Y-4.5395
X4.137Y-4.9906
X4.4713Y-3.0949
X4.5257Y-3.866
X4.5422Y-5.3921
X4.7648Y-4.6697
X5.0603Y-5.1534
X5.2099Y-3.2251
X5.2643Y-3.9963
X5.5034Y-4.8
X6.6208Y-3.2662
X6.6966Y-4.776
X6.9357Y-3.9723
X6.9551Y-5.162
X7.3594Y-3.136
X7.4352Y-4.6458
X7.4732Y-5.4007
X7.6743Y-3.842
X7.8783Y-4.9992
X8.098Y-3.0058
X8.1738Y-4.5155
X8.4129Y-3.7118
X8.7657Y-5.1727
X8.8366Y-2.8755
X8.9125Y-4.3853
X9.1515Y-3.5816
X9.6361Y-2.8045
X9.7118Y-4.3045
X10.2178Y-3.5545
X10.3108Y-5.0545
X10.3861Y-2.8045
X10.5548Y-4.3045
T0
M30
