M48
; DRILL file {KiCad 7.0.6} date Sat Feb 24 13:08:42 2024
; FORMAT={-:-/ absolute / inch / decimal}
; #@! TF.CreationDate,2024-02-24T13:08:42+01:00
; #@! TF.GenerationSoftware,Kicad,Pcbnew,7.0.6
; #@! TF.FileFunction,Plated,1,2,PTH
FMAT,2
INCH
; #@! TA.AperFunction,Plated,PTH,ViaDrill
T1C0.0157
; #@! TA.AperFunction,Plated,PTH,ComponentDrill
T2C0.0236
; #@! TA.AperFunction,Plated,PTH,ComponentDrill
T3C0.0394
; #@! TA.AperFunction,Plated,PTH,ComponentDrill
T4C0.0579
%
G90
G05
T1
X1.278Y-3.81
X2.028Y-3.8557
X2.9248Y-3.9529
X3.6713Y-4.0944
X4.4285Y-4.2512
X5.1857Y-4.408
X5.5472Y-4.2357
X5.638Y-3.4901
X5.672Y-4.1357
X5.72Y-4.3077
X5.89Y-3.5653
X5.9346Y-2.991
X5.9703Y-3.5656
X6.056Y-3.7357
X6.1286Y-2.993
X6.182Y-3.612
X6.392Y-4.4017
X6.4371Y-3.4885
X6.47Y-4.0797
X6.7325Y-4.2081
X7.2118Y-5.6579
X7.2461Y-4.1897
X7.4602Y-4.3019
X8.2232Y-4.1368
X8.9854Y-3.973
X9.512Y-3.8797
X10.094Y-3.83
T3
X6.0504Y-5.639
X6.1504Y-5.639
T4
X1.2547Y-3.4552
X1.2736Y-2.7052
X1.2915Y-4.2052
X1.3487Y-4.9553
X1.5047Y-3.3552
X1.5236Y-2.6052
X1.5415Y-4.1052
X1.5987Y-4.8553
X2.0047Y-3.4552
X2.0236Y-2.7052
X2.2547Y-3.3552
X2.2736Y-2.6052
X2.3227Y-4.2052
X2.5727Y-4.1052
X2.8637Y-2.7099
X2.9181Y-3.481
X2.9346Y-5.0071
X3.1273Y-2.6548
X3.1572Y-4.2847
X3.1817Y-3.426
X3.1982Y-4.952
X3.4208Y-4.2297
X3.6023Y-2.8401
X3.6567Y-3.6113
X3.8659Y-2.785
X3.8958Y-4.415
X3.9203Y-3.5562
X4.1594Y-4.3599
X4.3409Y-2.9703
X4.3953Y-3.7415
X4.4118Y-5.2675
X4.6045Y-2.9153
X4.6344Y-4.5452
X4.6589Y-3.6864
X4.6754Y-5.2125
X4.898Y-4.4901
X5.0795Y-3.1006
X5.1339Y-3.8717
X5.3431Y-3.0455
X5.373Y-4.6755
X5.3975Y-3.8167
X5.6366Y-4.6204
X6.4557Y-3.1938
X6.5316Y-4.7036
X6.6846Y-3.0519
X6.7604Y-4.5617
X6.7706Y-3.8998
X6.9995Y-3.758
X7.1943Y-3.0636
X7.2702Y-4.5733
X7.3081Y-5.3282
X7.4232Y-2.9217
X7.499Y-4.4314
X7.5092Y-3.7696
X7.5369Y-5.1863
X7.7381Y-3.6277
X7.9329Y-2.9333
X8.0088Y-4.4431
X8.1618Y-2.7914
X8.2376Y-4.3012
X8.2478Y-3.6394
X8.4767Y-3.4975
X8.6006Y-5.1003
X8.6715Y-2.8031
X8.7474Y-4.3129
X8.8295Y-4.9584
X8.9004Y-2.6612
X8.9762Y-4.171
X8.9864Y-3.5091
X9.2153Y-3.3672
X9.4861Y-2.7045
X9.5618Y-4.2045
X9.7361Y-2.6045
X9.8118Y-4.1045
X10.0678Y-3.4545
X10.1608Y-4.9545
X10.2361Y-2.7045
X10.3178Y-3.3545
X10.4048Y-4.2045
X10.4108Y-4.8545
X10.4861Y-2.6045
X10.6548Y-4.1045
T2
G00X5.8608Y-2.6784
M15
G01X5.8608Y-2.702
M16
G05
G00X5.8608Y-2.8331
M15
G01X5.8608Y-2.8764
M16
G05
G00X6.2009Y-2.6784
M15
G01X6.2009Y-2.702
M16
G05
G00X6.2009Y-2.8331
M15
G01X6.2009Y-2.8764
M16
G05
T0
M30
